<?xml version="1.0" encoding="utf-8"?>
<!-- Generator: Adobe Illustrator 16.0.4, SVG Export Plug-In . SVG Version: 6.00 Build 0)  -->
<!DOCTYPE svg PUBLIC "-//W3C//DTD SVG 1.1//EN" "http://www.w3.org/Graphics/SVG/1.1/DTD/svg11.dtd">
<svg version="1.1" id="Layer_1" xmlns="http://www.w3.org/2000/svg" xmlns:xlink="http://www.w3.org/1999/xlink" x="0px" y="0px"
	 width="293.694px" height="78.144px" viewBox="0 0 293.694 78.144" enable-background="new 0 0 293.694 78.144"
	 xml:space="preserve">
<g>
	<polygon fill="#FFFFFF" stroke="#FFFFFF" stroke-miterlimit="10" points="21.54,18.523 21.54,31.144 43.302,31.144 43.302,48.855 
		21.54,48.855 21.54,78.144 0,78.144 0,0 44.575,0 44.575,18.523 	"/>
	<path fill="#FFFFFF" stroke="#FFFFFF" stroke-miterlimit="10" d="M199.682,51.164v26.979h-21.528V51.277L153.723,0h23.385
		l7.284,16.902c1.981,4.515,3.479,8.454,4.638,11.922h0.228c1.394-4.163,3.478-8.791,5.674-13.655L201.643,0h22.811L199.682,51.164z
		"/>
	<polygon fill="#FFFFFF" stroke="#FFFFFF" stroke-miterlimit="10" points="276.792,18.523 276.792,78.144 255.253,78.144 
		255.253,18.523 238.364,18.523 238.364,0 293.694,0 293.694,18.523 	"/>
	<path fill="#FFFFFF" stroke="#FFFFFF" stroke-miterlimit="10" d="M85.282,34.792l-19.606-4.884c0.498-2.009,1.171-3.99,1.998-5.889
		l18.53,8.057C85.824,32.955,85.513,33.868,85.282,34.792 M88.116,28.73l-16.35-11.875c0.644-0.888,1.327-1.746,2.045-2.572
		l15.25,13.256C88.728,27.921,88.414,28.321,88.116,28.73"/>
	<path fill="#FFFFFF" stroke="#FFFFFF" stroke-miterlimit="10" d="M96.959,76.597c-2.459-0.358-4.889-0.96-7.22-1.788l6.778-19.039
		c1.079,0.384,2.201,0.661,3.338,0.826L96.959,76.597z M81.767,70.857c-2.067-1.347-4.013-2.907-5.782-4.633l14.11-14.465
		c0.831,0.809,1.742,1.539,2.709,2.171L81.767,70.857z M70.397,59.326c-1.327-2.096-2.45-4.334-3.336-6.644l18.872-7.229
		c0.409,1.067,0.927,2.1,1.539,3.07L70.397,59.326z M64.872,44.05c-0.212-1.638-0.32-3.306-0.32-4.951h20.207
		c0,0.777,0.052,1.566,0.154,2.341L64.872,44.05z"/>
	<path fill="#FFFFFF" stroke="#FFFFFF" stroke-miterlimit="10" d="M102.44,76.989V56.781c1.032,0,2.063-0.089,3.059-0.261
		l3.469,19.907C106.83,76.799,104.633,76.989,102.44,76.989 M112.328,75.682l-5.254-19.513c1.105-0.298,2.186-0.708,3.214-1.219
		l8.994,18.097C117.06,74.152,114.718,75.037,112.328,75.682 M122.293,71.375l-10.607-17.199c0.989-0.612,1.921-1.32,2.77-2.107
		l13.731,14.83C126.378,68.572,124.396,70.079,122.293,71.375"/>
	<path fill="#FFFFFF" stroke="#FFFFFF" stroke-miterlimit="10" d="M128.152,66.93l-13.661-14.889l0.56-0.546l14.455,14.12
		C129.067,66.066,128.616,66.504,128.152,66.93 M130.676,64.37L115.609,50.9c0.779-0.871,1.473-1.817,2.06-2.805l17.38,10.306
		C133.799,60.514,132.326,62.521,130.676,64.37 M135.898,56.895l-17.835-9.497c0.543-1.019,0.984-2.092,1.313-3.188l19.354,5.818
		C138.017,52.395,137.065,54.707,135.898,56.895"/>
	<path fill="#FFFFFF" stroke="#FFFFFF" stroke-miterlimit="10" d="M138.728,50.034l-19.35-5.831
		c0.146-0.487,0.274-0.983,0.378-1.486l19.788,4.09C139.317,47.903,139.046,48.98,138.728,50.034 M139.611,46.482l-19.823-3.938
		c0.221-1.117,0.335-2.276,0.335-3.446h20.208C140.331,41.587,140.09,44.072,139.611,46.482"/>
	<path fill="#FFFFFF" stroke="#FFFFFF" stroke-miterlimit="10" d="M140.331,39.099h-20.208c0-9.748-7.933-17.682-17.682-17.682
		h-0.279V1.208h0.279C123.334,1.208,140.331,18.205,140.331,39.099"/>
	<path fill="#FFFFFF" stroke="#FFFFFF" stroke-miterlimit="10" d="M322.375,493.852"/>
	<path fill="#FFFFFF" stroke="#FFFFFF" stroke-miterlimit="10" d="M322.375-79.148"/>
</g>
</svg>
