<?xml version="1.0" encoding="UTF-8" standalone="no"?>
<!-- Created with Inkscape (http://www.inkscape.org/) -->

<svg
   xmlns:dc="http://purl.org/dc/elements/1.1/"
   xmlns:cc="http://creativecommons.org/ns#"
   xmlns:rdf="http://www.w3.org/1999/02/22-rdf-syntax-ns#"
   xmlns:svg="http://www.w3.org/2000/svg"
   xmlns="http://www.w3.org/2000/svg"
   xmlns:sodipodi="http://sodipodi.sourceforge.net/DTD/sodipodi-0.dtd"
   xmlns:inkscape="http://www.inkscape.org/namespaces/inkscape"
   width="42.092033mm"
   height="52.089401mm"
   viewBox="0 0 149.145 184.56874"
   id="svg2"
   version="1.1"
   inkscape:version="0.91 r13725"
   sodipodi:docname="logo_otavanopisto.svg">
  <defs
     id="defs4">
    <clipPath
       id="clipPath4171"
       clipPathUnits="userSpaceOnUse">
      <path
         inkscape:connector-curvature="0"
         id="path4173"
         d="m 24.496,211.584 187.088,0 0,-187.088 -187.088,0 0,187.088 z" />
    </clipPath>
  </defs>
  <sodipodi:namedview
     id="base"
     pagecolor="#ffffff"
     bordercolor="#666666"
     borderopacity="1.0"
     inkscape:pageopacity="0.0"
     inkscape:pageshadow="2"
     inkscape:zoom="1.7141566"
     inkscape:cx="143.14368"
     inkscape:cy="72.284492"
     inkscape:document-units="px"
     inkscape:current-layer="layer1"
     showgrid="false"
     fit-margin-top="0"
     fit-margin-left="0"
     fit-margin-right="0"
     fit-margin-bottom="0"
     inkscape:window-width="1680"
     inkscape:window-height="1001"
     inkscape:window-x="0"
     inkscape:window-y="1"
     inkscape:window-maximized="1" />
  <metadata
     id="metadata7">
    <rdf:RDF>
      <cc:Work
         rdf:about="">
        <dc:format>image/svg+xml</dc:format>
        <dc:type
           rdf:resource="http://purl.org/dc/dcmitype/StillImage" />
        <dc:title></dc:title>
      </cc:Work>
    </rdf:RDF>
  </metadata>
  <g
     inkscape:label="Layer 1"
     inkscape:groupmode="layer"
     id="layer1"
     transform="translate(-273.99918,-197.22082)">
    <g
       id="g4167"
       transform="matrix(1.25,0,0,-1.25,201.02143,437.05519)">
      <g
         id="g4169"
         clip-path="url(#clipPath4171)">
        <g
           id="g4175"
           transform="translate(177.6982,132.2085)">
          <path
             d="m 0,0 c 0,32.951 -26.709,59.659 -59.658,59.659 -32.948,0 -59.658,-26.708 -59.658,-59.659 0,-30.933 23.545,-56.367 53.692,-59.361 l 0,-28.635 37.107,37.108 C -11.412,-40.4 0,-21.534 0,0"
             style="fill:#ffffff;fill-opacity:1;fill-rule:nonzero;stroke:none"
             id="path4177"
             inkscape:connector-curvature="0" />
        </g>
        <g
           id="g4179"
           transform="translate(139.4951,128.6611)">
          <path
             d="m 0,0 c -0.991,-0.448 -1.723,-1.241 -2.192,-2.378 -0.47,-1.139 -0.704,-2.758 -0.704,-4.857 0,-2.102 0.234,-3.721 0.704,-4.858 0.469,-1.138 1.201,-1.933 2.192,-2.379 0.991,-0.448 2.383,-0.673 4.174,-0.673 1.806,0 3.206,0.225 4.197,0.673 0.99,0.446 1.723,1.241 2.192,2.379 0.469,1.137 0.705,2.756 0.705,4.858 0,2.099 -0.236,3.718 -0.705,4.857 C 10.094,-1.241 9.361,-0.448 8.371,0 7.38,0.449 5.98,0.672 4.174,0.672 2.383,0.672 0.991,0.449 0,0 m 6.223,-7.235 c 0,-1.75 -0.134,-2.912 -0.406,-3.494 -0.273,-0.578 -0.82,-0.87 -1.643,-0.87 -0.822,0 -1.369,0.292 -1.641,0.87 -0.271,0.582 -0.408,1.744 -0.408,3.494 0,1.746 0.137,2.912 0.408,3.49 0.272,0.581 0.819,0.87 1.641,0.87 0.823,0 1.37,-0.289 1.643,-0.87 0.272,-0.578 0.406,-1.744 0.406,-3.49 m 5.959,-3.866 c -0.228,-0.228 -0.341,-0.644 -0.341,-1.245 l 0,-0.903 c 0,-0.604 0.113,-1.018 0.341,-1.246 0.227,-0.227 0.642,-0.34 1.245,-0.34 l 1.035,0 c 0.601,0 1.017,0.113 1.244,0.34 0.229,0.228 0.342,0.642 0.342,1.246 l 0,0.903 c 0,0.601 -0.113,1.017 -0.342,1.245 -0.227,0.225 -0.643,0.34 -1.244,0.34 l -1.035,0 c -0.603,0 -1.018,-0.115 -1.245,-0.34 m 5.264,0 c -0.227,-0.228 -0.342,-0.644 -0.342,-1.245 l 0,-0.903 c 0,-0.604 0.115,-1.018 0.342,-1.246 0.227,-0.227 0.642,-0.34 1.245,-0.34 l 1.036,0 c 0.6,0 1.016,0.113 1.245,0.34 0.226,0.228 0.34,0.642 0.34,1.246 l 0,0.903 c 0,0.601 -0.114,1.017 -0.34,1.245 -0.229,0.225 -0.645,0.34 -1.245,0.34 l -1.036,0 c -0.603,0 -1.018,-0.115 -1.245,-0.34 m 5.265,0 c -0.228,-0.228 -0.34,-0.644 -0.34,-1.245 l 0,-0.903 c 0,-0.604 0.112,-1.018 0.34,-1.246 0.227,-0.227 0.643,-0.34 1.244,-0.34 l 1.036,0 c 0.603,0 1.017,0.113 1.244,0.34 0.229,0.228 0.342,0.642 0.342,1.246 l 0,0.903 c 0,0.601 -0.113,1.017 -0.342,1.245 -0.227,0.225 -0.641,0.34 -1.244,0.34 l -1.036,0 c -0.601,0 -1.017,-0.115 -1.244,-0.34"
             style="fill:#0097c8;fill-opacity:1;fill-rule:nonzero;stroke:none"
             id="path4181"
             inkscape:connector-curvature="0" />
        </g>
        <g
           id="g4183"
           transform="translate(76.0098,128.6611)">
          <path
             d="m 0,0 c -0.992,-0.448 -1.724,-1.241 -2.193,-2.378 -0.469,-1.139 -0.705,-2.758 -0.705,-4.857 0,-2.102 0.236,-3.721 0.705,-4.858 0.469,-1.138 1.201,-1.933 2.193,-2.379 0.992,-0.448 2.383,-0.673 4.174,-0.673 1.806,0 3.205,0.225 4.193,0.673 0.994,0.446 1.725,1.241 2.196,2.379 0.469,1.137 0.704,2.756 0.704,4.858 0,2.099 -0.235,3.718 -0.704,4.857 C 10.092,-1.241 9.361,-0.448 8.367,0 7.379,0.449 5.98,0.672 4.174,0.672 2.383,0.672 0.992,0.449 0,0 m 6.223,-7.235 c 0,-1.75 -0.136,-2.912 -0.408,-3.494 -0.272,-0.578 -0.819,-0.87 -1.641,-0.87 -0.822,0 -1.369,0.292 -1.641,0.87 -0.273,0.582 -0.408,1.744 -0.408,3.494 0,1.746 0.135,2.912 0.408,3.49 0.272,0.581 0.819,0.87 1.641,0.87 0.822,0 1.369,-0.289 1.641,-0.87 0.272,-0.578 0.408,-1.744 0.408,-3.49 m 11.234,-7.6 0,5.244 c 0.748,-0.09 1.52,-0.134 2.313,-0.134 2.115,0 3.583,0.359 4.405,1.079 0.823,0.719 1.234,2.071 1.234,4.053 0,2.012 -0.444,3.378 -1.333,4.098 -0.889,0.718 -2.543,1.078 -4.968,1.078 -2.79,0 -4.933,-0.072 -6.432,-0.219 l 0,-15.199 4.781,0 z m 0,12.049 1.543,0 c 0.646,0 1.079,-0.121 1.299,-0.363 0.221,-0.243 0.33,-0.725 0.33,-1.444 0,-0.705 -0.109,-1.175 -0.33,-1.41 C 20.079,-6.237 19.646,-6.354 19,-6.354 l -1.543,0 0,3.568 z m 14.208,3.15 -4.737,0 0,-15.199 4.737,0 0,15.199 z m 9.064,-10.486 c 0.14,-0.132 0.21,-0.301 0.21,-0.506 0,-0.207 -0.099,-0.346 -0.296,-0.42 -0.199,-0.072 -0.599,-0.109 -1.203,-0.109 -0.777,0 -2.62,0.037 -5.528,0.109 l -0.285,-3.348 c 1.937,-0.498 3.898,-0.749 5.881,-0.749 2.348,0 3.972,0.345 4.868,1.036 0.895,0.69 1.344,1.895 1.344,3.612 0,1.131 -0.256,2.05 -0.772,2.756 -0.513,0.702 -1.395,1.328 -2.645,1.871 l -2.752,1.145 c -0.514,0.206 -0.863,0.378 -1.046,0.518 -0.183,0.14 -0.276,0.311 -0.276,0.518 0,0.235 0.096,0.387 0.286,0.462 0.193,0.073 0.567,0.111 1.125,0.111 1.805,0 3.59,-0.016 5.353,-0.045 l 0.286,3.062 c -1.468,0.514 -3.312,0.771 -5.53,0.771 -2.32,0 -3.942,-0.319 -4.868,-0.958 -0.925,-0.638 -1.387,-1.81 -1.387,-3.513 0,-1.116 0.256,-2.023 0.771,-2.722 0.513,-0.697 1.387,-1.318 2.621,-1.861 l 3.018,-1.321 c 0.411,-0.148 0.686,-0.286 0.825,-0.419 m 19.045,10.486 -13.283,0 0,-3.569 4.25,0 0,-11.63 4.78,0 0,11.63 4.253,0 0,3.569 z"
             style="fill:#1d1d1b;fill-opacity:1;fill-rule:nonzero;stroke:none"
             id="path4185"
             inkscape:connector-curvature="0" />
        </g>
        <g
           id="g4187"
           transform="translate(76.0098,147.9248)">
          <path
             d="m 0,0 c -0.992,-0.448 -1.724,-1.241 -2.193,-2.377 -0.469,-1.14 -0.705,-2.759 -0.705,-4.858 0,-2.101 0.236,-3.72 0.705,-4.858 0.469,-1.138 1.201,-1.931 2.193,-2.379 0.992,-0.448 2.383,-0.674 4.174,-0.674 1.806,0 3.205,0.226 4.193,0.674 0.994,0.448 1.725,1.241 2.196,2.379 0.469,1.138 0.704,2.757 0.704,4.858 0,2.099 -0.235,3.718 -0.704,4.858 C 10.092,-1.241 9.361,-0.448 8.367,0 7.379,0.449 5.98,0.672 4.174,0.672 2.383,0.672 0.992,0.449 0,0 m 6.223,-7.235 c 0,-1.75 -0.136,-2.912 -0.408,-3.493 -0.272,-0.579 -0.819,-0.87 -1.641,-0.87 -0.822,0 -1.369,0.291 -1.641,0.87 -0.273,0.581 -0.408,1.743 -0.408,3.493 0,1.747 0.135,2.911 0.408,3.49 0.272,0.581 0.819,0.87 1.641,0.87 0.822,0 1.369,-0.289 1.641,-0.87 0.272,-0.579 0.408,-1.743 0.408,-3.49 m 18.284,7.599 -13.284,0 0,-3.569 4.252,0 0,-11.631 4.779,0 0,11.631 4.253,0 0,3.569 z m 9.317,-15.2 4.869,0 -3.944,13.966 c -0.103,0.368 -0.3,0.664 -0.594,0.893 -0.297,0.227 -0.633,0.341 -1.013,0.341 l -4.34,0 c -0.382,0 -0.72,-0.114 -1.015,-0.341 -0.293,-0.229 -0.492,-0.525 -0.594,-0.893 l -3.945,-13.966 4.871,0 0.77,3.282 4.164,0 0.771,-3.282 z m -4.164,6.631 0.75,3.26 c 0.088,0.47 0.176,1.05 0.263,1.74 l 0.595,0 c 0.044,-0.469 0.132,-1.05 0.263,-1.74 l 0.75,-3.26 -2.621,0 z m 17.888,8.569 -1.96,-9.892 c -0.132,-0.644 -0.228,-1.225 -0.285,-1.738 l -0.53,0 c -0.163,1.028 -0.257,1.607 -0.287,1.738 l -1.961,9.892 -4.911,0 3.699,-13.923 c 0.089,-0.381 0.28,-0.689 0.574,-0.924 0.293,-0.236 0.647,-0.353 1.056,-0.353 l 4.186,0 c 0.411,0 0.766,0.117 1.059,0.353 0.292,0.235 0.484,0.543 0.573,0.924 l 3.699,13.923 -4.912,0 z m 14.406,-15.2 4.869,0 -3.943,13.966 c -0.102,0.368 -0.301,0.664 -0.595,0.893 -0.293,0.227 -0.631,0.341 -1.013,0.341 l -4.338,0 C 56.549,0.364 56.213,0.25 55.92,0.023 55.624,-0.206 55.428,-0.502 55.325,-0.87 l -3.943,-13.966 4.868,0 0.77,3.282 4.164,0 0.77,-3.282 z m -4.163,6.631 0.749,3.26 c 0.089,0.47 0.176,1.05 0.265,1.74 l 0.595,0 c 0.044,-0.469 0.132,-1.05 0.264,-1.74 l 0.75,-3.26 -2.623,0 z m 19.584,8.569 0,-6.213 c 0.014,-0.748 0.089,-1.667 0.221,-2.753 l -0.155,0 c -0.381,1.028 -0.771,1.896 -1.168,2.599 l -3.171,4.981 c -0.308,0.512 -0.58,0.873 -0.816,1.078 -0.234,0.206 -0.581,0.308 -1.035,0.308 l -1.828,0 c -1.102,0 -1.652,-0.551 -1.652,-1.653 l 0,-13.547 4.405,0 0,6.432 c 0,0.822 -0.072,1.749 -0.22,2.776 l 0.154,0 c 0.31,-1.073 0.647,-1.938 1.014,-2.598 l 3.305,-5.222 c 0.293,-0.515 0.56,-0.874 0.804,-1.08 0.241,-0.204 0.59,-0.308 1.045,-0.308 l 1.829,0 c 1.101,0 1.652,0.55 1.652,1.653 l 0,13.547 -4.384,0 z"
             style="fill:#1d1d1b;fill-opacity:1;fill-rule:nonzero;stroke:none"
             id="path4189"
             inkscape:connector-curvature="0" />
        </g>
      </g>
    </g>
  </g>
</svg>
